<?xml version="1.0" encoding="utf-8"?>
<!-- Generator: Adobe Illustrator 25.2.0, SVG Export Plug-In . SVG Version: 6.00 Build 0)  -->
<svg version="1.1" id="Layer_1" xmlns="http://www.w3.org/2000/svg" xmlns:xlink="http://www.w3.org/1999/xlink" x="0px" y="0px"
	 viewBox="0 0 283.3 189.1" style="enable-background:new 0 0 283.3 189.1;" xml:space="preserve">
<style type="text/css">
	.st0{clip-path:url(#SVGID_2_);}
	.st1{clip-path:url(#SVGID_4_);}
	.st2{clip-path:url(#SVGID_6_);}
	.st3{fill:#30475E;}
	.st4{clip-path:url(#SVGID_8_);}
	.st5{clip-path:url(#SVGID_10_);}
	.st6{clip-path:url(#SVGID_12_);}
	.st7{clip-path:url(#SVGID_14_);}
	.st8{clip-path:url(#SVGID_16_);}
	.st9{clip-path:url(#SVGID_18_);}
	.st10{clip-path:url(#SVGID_20_);}
	.st11{clip-path:url(#SVGID_22_);}
	.st12{clip-path:url(#SVGID_24_);}
	.st13{clip-path:url(#SVGID_26_);}
	.st14{clip-path:url(#SVGID_28_);}
	.st15{clip-path:url(#SVGID_30_);}
	.st16{clip-path:url(#SVGID_32_);}
	.st17{clip-path:url(#SVGID_34_);}
	.st18{clip-path:url(#SVGID_36_);}
	.st19{clip-path:url(#SVGID_38_);}
	.st20{clip-path:url(#SVGID_40_);}
	.st21{clip-path:url(#SVGID_42_);}
	.st22{clip-path:url(#SVGID_44_);}
	.st23{clip-path:url(#SVGID_46_);}
	.st24{clip-path:url(#SVGID_48_);}
	.st25{fill:#FFFFFF;}
	.st26{clip-path:url(#SVGID_50_);}
	.st27{clip-path:url(#SVGID_52_);}
	.st28{clip-path:url(#SVGID_54_);}
	.st29{clip-path:url(#SVGID_56_);}
	.st30{clip-path:url(#SVGID_58_);}
</style>
<g>
	<defs>
		<rect id="SVGID_1_" x="268.6" y="75" width="14" height="41"/>
	</defs>
	<clipPath id="SVGID_2_">
		<use xlink:href="#SVGID_1_"  style="overflow:visible;"/>
	</clipPath>
	<g class="st0">
		<g>
			<defs>
				
					<rect id="SVGID_3_" x="184.6" y="28.4" transform="matrix(0.7071 -0.7071 0.7071 0.7071 6.6228 205.4552)" width="133.5" height="132.8"/>
			</defs>
			<clipPath id="SVGID_4_">
				<use xlink:href="#SVGID_3_"  style="overflow:visible;"/>
			</clipPath>
			<g class="st1">
				<g>
					<defs>
						
							<rect id="SVGID_5_" x="184.6" y="28.4" transform="matrix(0.7071 -0.7071 0.7071 0.7071 6.6228 205.4552)" width="133.5" height="132.8"/>
					</defs>
					<clipPath id="SVGID_6_">
						<use xlink:href="#SVGID_5_"  style="overflow:visible;"/>
					</clipPath>
					<g class="st2">
						<path class="st3" d="M277.1,75.5c-1.3,9.6-3.6,18.3-6.7,25.3c-0.3,0.8-0.7,1.5-1,2.2l12.8,12.8l0-36.3L277.1,75.5"/>
					</g>
				</g>
			</g>
		</g>
	</g>
</g>
<g>
	<defs>
		<rect id="SVGID_7_" x="220.6" y="75" width="13" height="41"/>
	</defs>
	<clipPath id="SVGID_8_">
		<use xlink:href="#SVGID_7_"  style="overflow:visible;"/>
	</clipPath>
	<g class="st4">
		<g>
			<defs>
				
					<rect id="SVGID_9_" x="184.6" y="28.4" transform="matrix(0.7071 -0.7071 0.7071 0.7071 6.6228 205.4552)" width="133.5" height="132.8"/>
			</defs>
			<clipPath id="SVGID_10_">
				<use xlink:href="#SVGID_9_"  style="overflow:visible;"/>
			</clipPath>
			<g class="st5">
				<g>
					<defs>
						
							<rect id="SVGID_11_" x="184.6" y="28.4" transform="matrix(0.7071 -0.7071 0.7071 0.7071 6.6228 205.4552)" width="133.5" height="132.8"/>
					</defs>
					<clipPath id="SVGID_12_">
						<use xlink:href="#SVGID_11_"  style="overflow:visible;"/>
					</clipPath>
					<g class="st6">
						<path class="st3" d="M225.8,75.6l-5.1,4l0,36.3l12.8-12.8c-0.3-0.7-0.7-1.4-1-2.2C229.4,93.9,227.2,85.2,225.8,75.6"/>
					</g>
				</g>
			</g>
		</g>
	</g>
</g>
<g>
	<defs>
		<rect id="SVGID_13_" x="229.6" width="44" height="100"/>
	</defs>
	<clipPath id="SVGID_14_">
		<use xlink:href="#SVGID_13_"  style="overflow:visible;"/>
	</clipPath>
	<g class="st7">
		<g>
			<defs>
				
					<rect id="SVGID_15_" x="184.6" y="28.4" transform="matrix(0.7071 -0.7071 0.7071 0.7071 6.6228 205.4552)" width="133.5" height="132.8"/>
			</defs>
			<clipPath id="SVGID_16_">
				<use xlink:href="#SVGID_15_"  style="overflow:visible;"/>
			</clipPath>
			<g class="st8">
				<g>
					<defs>
						
							<rect id="SVGID_17_" x="184.6" y="28.4" transform="matrix(0.7071 -0.7071 0.7071 0.7071 6.6228 205.4552)" width="133.5" height="132.8"/>
					</defs>
					<clipPath id="SVGID_18_">
						<use xlink:href="#SVGID_17_"  style="overflow:visible;"/>
					</clipPath>
					<g class="st9">
						<path class="st3" d="M251.5,47.5c-6,0-10.8-4.8-10.8-10.8c0-6,4.9-10.8,10.8-10.8c6,0,10.8,4.8,10.8,10.8
							C262.3,42.7,257.5,47.5,251.5,47.5z M272.1,71.6c0.6-5.1,0.9-10.3,0.9-15.6c0-12.4-3.5-25.4-10.4-38.5
							c-0.7-1.4-1.5-2.8-2.3-4.1c-3.4-5.8-6.7-10.3-8.7-12.8c-2,2.6-5.3,7-8.7,12.9c-0.8,1.3-1.5,2.7-2.3,4.1
							c-7,13.1-10.5,26.1-10.5,38.5c0,5.3,0.3,10.5,0.8,15.6c0.1,0.5,0.1,1.1,0.2,1.6c0.9,7.2,2.3,13.9,4.3,19.7
							c0.7,2,1.4,3.9,2.2,5.7c0.2,0.4,0.3,0.7,0.5,1.1l26.9,0c0.2-0.4,0.3-0.7,0.5-1.1c0.8-1.8,1.5-3.7,2.2-5.7
							c1.9-5.8,3.4-12.5,4.3-19.7C272,72.7,272,72.2,272.1,71.6"/>
					</g>
				</g>
			</g>
		</g>
	</g>
</g>
<g>
	<defs>
		<rect id="SVGID_19_" x="245.6" y="31" width="12" height="12"/>
	</defs>
	<clipPath id="SVGID_20_">
		<use xlink:href="#SVGID_19_"  style="overflow:visible;"/>
	</clipPath>
	<g class="st10">
		<g>
			<defs>
				
					<rect id="SVGID_21_" x="184.6" y="28.4" transform="matrix(0.7071 -0.7071 0.7071 0.7071 6.6228 205.4552)" width="133.5" height="132.8"/>
			</defs>
			<clipPath id="SVGID_22_">
				<use xlink:href="#SVGID_21_"  style="overflow:visible;"/>
			</clipPath>
			<g class="st11">
				<g>
					<defs>
						
							<rect id="SVGID_23_" x="184.6" y="28.4" transform="matrix(0.7071 -0.7071 0.7071 0.7071 6.6228 205.4552)" width="133.5" height="132.8"/>
					</defs>
					<clipPath id="SVGID_24_">
						<use xlink:href="#SVGID_23_"  style="overflow:visible;"/>
					</clipPath>
					<g class="st12">
						<path class="st3" d="M251.5,31.4c-2.9,0-5.4,2.4-5.4,5.4c0,2.9,2.4,5.3,5.3,5.3s5.4-2.4,5.4-5.4S254.5,31.4,251.5,31.4"/>
					</g>
				</g>
			</g>
		</g>
	</g>
</g>
<g>
	<defs>
		<rect id="SVGID_25_" x="243.6" y="105" width="15" height="8"/>
	</defs>
	<clipPath id="SVGID_26_">
		<use xlink:href="#SVGID_25_"  style="overflow:visible;"/>
	</clipPath>
	<g class="st13">
		<g>
			<defs>
				
					<rect id="SVGID_27_" x="184.6" y="28.4" transform="matrix(0.7071 -0.7071 0.7071 0.7071 6.6228 205.4552)" width="133.5" height="132.8"/>
			</defs>
			<clipPath id="SVGID_28_">
				<use xlink:href="#SVGID_27_"  style="overflow:visible;"/>
			</clipPath>
			<g class="st14">
				<g>
					<defs>
						
							<rect id="SVGID_29_" x="184.6" y="28.4" transform="matrix(0.7071 -0.7071 0.7071 0.7071 6.6228 205.4552)" width="133.5" height="132.8"/>
					</defs>
					<clipPath id="SVGID_30_">
						<use xlink:href="#SVGID_29_"  style="overflow:visible;"/>
					</clipPath>
					<g class="st15">
						<path class="st3" d="M258,105.2l-13.7,0l0,7.3l13.7,0L258,105.2"/>
					</g>
				</g>
			</g>
		</g>
	</g>
</g>
<g>
	<defs>
		<rect id="SVGID_31_" x="238.6" y="130" width="6" height="32"/>
	</defs>
	<clipPath id="SVGID_32_">
		<use xlink:href="#SVGID_31_"  style="overflow:visible;"/>
	</clipPath>
	<g class="st16">
		<g>
			<defs>
				
					<rect id="SVGID_33_" x="184.6" y="28.4" transform="matrix(0.7071 -0.7071 0.7071 0.7071 6.6228 205.4552)" width="133.5" height="132.8"/>
			</defs>
			<clipPath id="SVGID_34_">
				<use xlink:href="#SVGID_33_"  style="overflow:visible;"/>
			</clipPath>
			<g class="st17">
				<g>
					<defs>
						
							<rect id="SVGID_35_" x="184.6" y="28.4" transform="matrix(0.7071 -0.7071 0.7071 0.7071 6.6228 205.4552)" width="133.5" height="132.8"/>
					</defs>
					<clipPath id="SVGID_36_">
						<use xlink:href="#SVGID_35_"  style="overflow:visible;"/>
					</clipPath>
					<g class="st18">
						<path class="st3" d="M238.8,161.6l5.5,0l0-31.2l-5.5,0L238.8,161.6"/>
					</g>
				</g>
			</g>
		</g>
	</g>
</g>
<g>
	<defs>
		<rect id="SVGID_37_" x="247.6" y="122" width="7" height="65"/>
	</defs>
	<clipPath id="SVGID_38_">
		<use xlink:href="#SVGID_37_"  style="overflow:visible;"/>
	</clipPath>
	<g class="st19">
		<g>
			<defs>
				
					<rect id="SVGID_39_" x="184.6" y="28.4" transform="matrix(0.7071 -0.7071 0.7071 0.7071 6.6228 205.4552)" width="133.5" height="132.8"/>
			</defs>
			<clipPath id="SVGID_40_">
				<use xlink:href="#SVGID_39_"  style="overflow:visible;"/>
			</clipPath>
			<g class="st20">
				<g>
					<defs>
						
							<rect id="SVGID_41_" x="184.6" y="28.4" transform="matrix(0.7071 -0.7071 0.7071 0.7071 6.6228 205.4552)" width="133.5" height="132.8"/>
					</defs>
					<clipPath id="SVGID_42_">
						<use xlink:href="#SVGID_41_"  style="overflow:visible;"/>
					</clipPath>
					<g class="st21">
						<path class="st3" d="M248.4,186.1l5.5,0l0.1-63.2l-5.5,0L248.4,186.1"/>
					</g>
				</g>
			</g>
		</g>
	</g>
</g>
<g>
	<defs>
		<rect id="SVGID_43_" x="257.6" y="130" width="6" height="42"/>
	</defs>
	<clipPath id="SVGID_44_">
		<use xlink:href="#SVGID_43_"  style="overflow:visible;"/>
	</clipPath>
	<g class="st22">
		<g>
			<defs>
				
					<rect id="SVGID_45_" x="184.6" y="28.4" transform="matrix(0.7071 -0.7071 0.7071 0.7071 6.6228 205.4552)" width="133.5" height="132.8"/>
			</defs>
			<clipPath id="SVGID_46_">
				<use xlink:href="#SVGID_45_"  style="overflow:visible;"/>
			</clipPath>
			<g class="st23">
				<g>
					<defs>
						
							<rect id="SVGID_47_" x="184.6" y="28.4" transform="matrix(0.7071 -0.7071 0.7071 0.7071 6.6228 205.4552)" width="133.5" height="132.8"/>
					</defs>
					<clipPath id="SVGID_48_">
						<use xlink:href="#SVGID_47_"  style="overflow:visible;"/>
					</clipPath>
					<g class="st24">
						<path class="st3" d="M257.9,171.3l5.5,0l0-40.9l-5.5,0L257.9,171.3"/>
					</g>
				</g>
			</g>
		</g>
	</g>
</g>
<path class="st25" d="M251.3,29.6c-3.5,0-6.4,2.9-6.4,6.4s2.9,6.4,6.4,6.4c3.5,0,6.4-2.9,6.4-6.4S254.8,29.6,251.3,29.6"/>
<g>
	<defs>
		<rect id="SVGID_49_" x="243.5" y="27" width="16.5" height="18.8"/>
	</defs>
	<clipPath id="SVGID_50_">
		<use xlink:href="#SVGID_49_"  style="overflow:visible;"/>
	</clipPath>
	<g class="st26">
		<path class="st3" d="M259.6,31.4l-7.5-4.3c-0.3-0.2-0.5-0.2-0.8,0l-7.5,4.3c-0.3,0.2-0.4,0.4-0.4,0.7v8.5c0,0.3,0.1,0.5,0.4,0.7
			l7.5,4.3c0.3,0.2,0.5,0.2,0.8,0l7.5-4.3c0.3-0.2,0.4-0.4,0.4-0.7v-8.5C260,31.8,259.9,31.6,259.6,31.4z M248.8,41.5
			c0,0.1,0,0.3-0.1,0.4c-0.1,0.1-0.2,0.2-0.4,0.2c0,0-0.1,0-0.1,0c-0.3,0-0.5-0.1-0.6-0.4l-1.6-5V40c0,0.2-0.1,0.3-0.2,0.4
			c-0.1,0.1-0.3,0.2-0.4,0.2s-0.3-0.1-0.4-0.2c-0.1-0.1-0.2-0.3-0.2-0.4v-7.2c0-0.1,0-0.3,0.1-0.4c0.1-0.1,0.2-0.2,0.4-0.2
			c0.1,0,0.3,0,0.4,0.1s0.2,0.2,0.3,0.3l1.6,5v-6.4c0-0.2,0.1-0.3,0.2-0.4s0.3-0.2,0.4-0.2s0.3,0.1,0.4,0.2c0.1,0.1,0.2,0.3,0.2,0.4
			V41.5z M253.5,37h-2.7v5.7c0,0.2-0.1,0.3-0.2,0.4c-0.1,0.1-0.3,0.2-0.4,0.2s-0.3-0.1-0.4-0.2c-0.1-0.1-0.2-0.3-0.2-0.4V30.1
			c0-0.2,0.1-0.4,0.3-0.5l1.6-0.9c0.2-0.1,0.4-0.1,0.6,0l1.8,1c0.1,0.1,0.2,0.2,0.3,0.4c0,0.2,0,0.3-0.1,0.4
			c-0.1,0.1-0.2,0.2-0.4,0.3s-0.3,0-0.5-0.1l-1.5-0.8l-1,0.6v5.4h2.7c0.2,0,0.3,0.1,0.4,0.2c0.1,0.1,0.2,0.3,0.2,0.4
			s-0.1,0.3-0.2,0.4C253.8,36.9,253.7,37,253.5,37z M258.5,33.1c-0.1,0.1-0.2,0.2-0.4,0.3c-0.2,0-0.3,0-0.4-0.1l-0.7-0.4v7.9
			c0,0.2-0.1,0.3-0.2,0.4c-0.1,0.1-0.3,0.2-0.4,0.2s-0.3-0.1-0.4-0.2c-0.1-0.1-0.2-0.3-0.2-0.4v-8.6l-1.3-0.7
			c-0.1-0.1-0.2-0.2-0.3-0.4c0-0.2,0-0.3,0.1-0.4s0.2-0.2,0.4-0.3c0.2,0,0.3,0,0.5,0.1l3.1,1.8c0.1,0.1,0.2,0.2,0.3,0.4
			S258.6,32.9,258.5,33.1z"/>
	</g>
</g>
<g>
	<defs>
		<rect id="SVGID_51_" x="58.2" y="105" width="43.4" height="83.7"/>
	</defs>
	<clipPath id="SVGID_52_">
		<use xlink:href="#SVGID_51_"  style="overflow:visible;"/>
	</clipPath>
	<g class="st27">
		<path class="st3" d="M65.5,188.7H94c4.1,0,7.3-3.3,7.3-7.3v-68.4c0-4.1-3.3-7.3-7.3-7.3H65.5c-4.1,0-7.3,3.3-7.3,7.3v68.4
			C58.2,185.4,61.5,188.7,65.5,188.7z"/>
	</g>
</g>
<g>
	<defs>
		<rect id="SVGID_53_" x="111.6" y="71" width="44" height="117.7"/>
	</defs>
	<clipPath id="SVGID_54_">
		<use xlink:href="#SVGID_53_"  style="overflow:visible;"/>
	</clipPath>
	<g class="st28">
		<path class="st3" d="M119.7,188.7h28.4c4.1,0,7.3-3.3,7.3-7.3V78.7c0-4.1-3.3-7.3-7.3-7.3h-28.4c-4.1,0-7.3,3.3-7.3,7.3v102.6
			C112.4,185.4,115.7,188.7,119.7,188.7z"/>
	</g>
</g>
<g>
	<defs>
		<rect id="SVGID_55_" x="165.6" y="37.2" width="44.1" height="151.5"/>
	</defs>
	<clipPath id="SVGID_56_">
		<use xlink:href="#SVGID_55_"  style="overflow:visible;"/>
	</clipPath>
	<g class="st29">
		<path class="st3" d="M209.7,181.3V44.5c0-4.1-3.3-7.3-7.3-7.3h-28.4c-4.1,0-7.3,3.3-7.3,7.3v136.8c0,4.1,3.3,7.3,7.3,7.3h28.4
			C206.4,188.7,209.7,185.4,209.7,181.3z"/>
	</g>
</g>
<g>
	<defs>
		<rect id="SVGID_57_" y="140.4" width="48.6" height="48.8"/>
	</defs>
	<clipPath id="SVGID_58_">
		<use xlink:href="#SVGID_57_"  style="overflow:visible;"/>
	</clipPath>
	<g class="st30">
		<path class="st3" d="M46.1,144.2h-6.6v-1.8c0-1-0.8-2-2-2H10.8c-1,0-2,0.8-2,2v1.8H2.4c-1.2,0-2.2,1-2.2,2.2v6.8c0,5,4,9,9,9.2
			c1,5.6,5,10.2,10.4,11.8v3.6h-3.6c-2.4,0-4.4,2-4.4,4.4v4.6c0,1.2,1,2.2,2.2,2.2h21.1c1.2,0,2.2-1,2.2-2.2v-4.6
			c0-2.4-2-4.4-4.4-4.4h-3.6v-3.6c5.4-1.6,9.4-6.2,10.4-11.8c5-0.2,9-4.2,9-9.2v-6.8C48.4,145.2,47.3,144.2,46.1,144.2z M8.8,158
			c-2.4-0.2-4.2-2.4-4.2-4.8v-4.8H9v9.6H8.8z M24.3,160.8c-3,0-5.6-2.6-5.6-5.6c0-3,2.6-5.6,5.6-5.6c3.2,0,5.6,2.6,5.6,5.6
			C29.9,158.4,27.5,160.8,24.3,160.8z M44.1,153.2c0,2.6-2,4.6-4.4,5v-9.8h4.4V153.2z"/>
	</g>
</g>
</svg>
